<svg width="16" height="16" viewBox="0 0 16 16" fill="none" xmlns="http://www.w3.org/2000/svg">
<path d="M1.05954 4.40913C1.72502 3.08397 2.74592 1.97 4.00814 1.19171C5.27035 0.413418 6.72413 0.00148636 8.20701 0.00195352C10.3626 0.00195352 12.1735 0.794606 13.558 2.08557L11.2648 4.37954C10.4354 3.58689 9.38119 3.18296 8.20701 3.18296C6.1234 3.18296 4.35972 4.5907 3.73184 6.48075C3.57187 6.96066 3.48069 7.47256 3.48069 8.00047C3.48069 8.52837 3.57187 9.04027 3.73184 9.52018C4.36052 11.411 6.1234 12.818 8.20701 12.818C9.28281 12.818 10.1986 12.534 10.9153 12.0541C11.3308 11.7806 11.6865 11.4256 11.9609 11.0107C12.2353 10.5958 12.4227 10.1296 12.5118 9.64016H8.20701V6.54634H15.74C15.8344 7.06944 15.8856 7.61494 15.8856 8.18203C15.8856 10.6184 15.0137 12.6692 13.5004 14.0609C12.1775 15.2831 10.3666 15.999 8.20701 15.999C7.15651 15.9994 6.11623 15.7928 5.14561 15.391C4.175 14.9892 3.29308 14.4 2.55027 13.6572C1.80745 12.9144 1.2183 12.0325 0.816491 11.0619C0.414677 10.0912 0.208076 9.05096 0.208497 8.00047C0.208497 6.70951 0.517239 5.48893 1.05954 4.40913Z" fill="black"/>
</svg>
