<svg width="20" height="20" viewBox="0 0 20 20" fill="none" xmlns="http://www.w3.org/2000/svg">
<path d="M10.0497 20C9.09972 20 8.25806 19.7 7.52472 19.1C6.79139 18.5 6.33306 17.7333 6.14972 16.8C5.26639 17.0833 4.37472 17.0667 3.47472 16.75C2.57472 16.4333 1.88306 15.8833 1.39972 15.1C0.899723 14.3 0.716389 13.4123 0.849722 12.437C0.983056 11.4617 1.41639 10.6493 2.14972 10C1.44972 9.36667 1.02872 8.58333 0.886723 7.65C0.744723 6.71667 0.899056 5.85 1.34972 5.05C1.79972 4.25 2.47906 3.671 3.38772 3.313C4.29639 2.955 5.20039 2.91733 6.09972 3.2C6.28306 2.26667 6.74139 1.5 7.47472 0.9C8.20806 0.3 9.04972 0 9.99972 0C10.9497 0 11.7914 0.3 12.5247 0.9C13.2581 1.5 13.7164 2.26667 13.8997 3.2C14.8331 2.91667 15.7374 2.94167 16.6127 3.275C17.4881 3.60833 18.1671 4.2 18.6497 5.05C19.0997 5.88333 19.2624 6.75433 19.1377 7.663C19.0131 8.57167 18.5837 9.35067 17.8497 10C18.5831 10.65 19.0207 11.4543 19.1627 12.413C19.3047 13.3717 19.1504 14.2673 18.6997 15.1C18.2164 15.95 17.5374 16.5167 16.6627 16.8C15.7881 17.0833 14.8837 17.0833 13.9497 16.8C13.7664 17.7333 13.3081 18.5 12.5747 19.1C11.8414 19.7 10.9997 20 10.0497 20ZM9.99972 14C11.0997 14 12.0414 13.6083 12.8247 12.825C13.6081 12.0417 13.9997 11.1 13.9997 10C13.9997 8.9 13.6081 7.95833 12.8247 7.175C12.0414 6.39167 11.0997 6 9.99972 6C8.89972 6 7.95806 6.39167 7.17472 7.175C6.39139 7.95833 5.99972 8.9 5.99972 10C5.99972 11.1 6.39139 12.0417 7.17472 12.825C7.95806 13.6083 8.89972 14 9.99972 14Z" fill="#232221"/>
</svg>
