<svg width="22" height="22" viewBox="0 0 22 22" fill="none" xmlns="http://www.w3.org/2000/svg">
<path fill-rule="evenodd" clip-rule="evenodd" d="M9.05435 1.34361C10.1756 0.388068 11.8248 0.388068 12.9461 1.34361L14.2175 2.42715C14.3777 2.56364 14.5768 2.64612 14.7866 2.66286L16.4518 2.79575C17.9204 2.91294 19.0865 4.07907 19.2037 5.5476L19.3366 7.21284C19.3533 7.42261 19.4358 7.62175 19.5723 7.78191L20.6558 9.05338C21.6114 10.1746 21.6114 11.8238 20.6558 12.9451L19.5723 14.2165C19.4358 14.3767 19.3533 14.5759 19.3366 14.7856L19.2037 16.4509C19.0865 17.9194 17.9204 19.0855 16.4518 19.2027L14.7866 19.3356C14.5768 19.3523 14.3777 19.4348 14.2175 19.5713L12.9461 20.6548C11.8248 21.6104 10.1756 21.6104 9.05435 20.6548L7.78289 19.5713C7.62272 19.4348 7.42358 19.3523 7.21382 19.3356L5.54858 19.2027C4.08005 19.0855 2.91392 17.9194 2.79673 16.4509L2.66384 14.7856C2.6471 14.5759 2.56461 14.3767 2.42812 14.2165L1.34459 12.9451C0.389044 11.8238 0.389044 10.1746 1.34459 9.05338L2.42812 7.78191C2.56461 7.62175 2.6471 7.42261 2.66384 7.21284L2.79673 5.5476C2.91392 4.07907 4.08005 2.91294 5.54858 2.79575L7.21382 2.66286C7.42358 2.64612 7.62272 2.56364 7.78289 2.42715L9.05435 1.34361ZM11.6488 2.86584C11.2751 2.54732 10.7253 2.54732 10.3516 2.86584L9.08012 3.94938C8.59963 4.35885 8.00221 4.60631 7.37291 4.65652L5.70767 4.78941C5.21816 4.82847 4.82945 5.21719 4.79039 5.7067L4.6575 7.37194C4.60728 8.00123 4.35982 8.59865 3.95035 9.07914L2.86682 10.3506C2.5483 10.7244 2.5483 11.2741 2.86682 11.6478L3.95035 12.9193C4.35982 13.3998 4.60728 13.9972 4.6575 14.6265L4.79039 16.2918C4.82945 16.7813 5.21816 17.17 5.70767 17.209L7.37291 17.3419C8.00221 17.3922 8.59963 17.6396 9.08012 18.0491L10.3516 19.1326C10.7253 19.4511 11.2751 19.4511 11.6488 19.1326L12.9203 18.0491C13.4008 17.6396 13.9982 17.3922 14.6275 17.3419L16.2927 17.209C16.7822 17.17 17.171 16.7813 17.21 16.2918L17.3429 14.6265C17.3931 13.9972 17.6406 13.3998 18.0501 12.9193L19.1336 11.6478C19.4521 11.2741 19.4521 10.7244 19.1336 10.3506L18.0501 9.07914C17.6406 8.59865 17.3931 8.00123 17.3429 7.37194L17.21 5.7067C17.171 5.21719 16.7822 4.82847 16.2927 4.78941L14.6275 4.65652C13.9982 4.60631 13.4008 4.35885 12.9203 3.94938L11.6488 2.86584Z" fill="#535763"/>
</svg>
